<svg width="27" height="24" viewBox="0 0 27 24" fill="none" xmlns="http://www.w3.org/2000/svg">
<g id="&#240;&#159;&#166;&#134; icon &#34;eye&#34;">
<g id="Group">
<path id="Vector" d="M17.8684 11.9461C17.8684 14.3622 15.916 16.3146 13.5 16.3146C11.0839 16.3146 9.13159 14.3622 9.13159 11.9461C9.13159 9.53008 11.0839 7.57776 13.5 7.57776C15.916 7.57776 17.8684 9.53008 17.8684 11.9461Z" stroke="white" stroke-width="2" stroke-linecap="round" stroke-linejoin="round"/>
<path id="Vector_2" d="M13.5001 22.0375C17.8075 22.0375 21.8221 19.4994 24.6164 15.1065C25.7146 13.386 25.7146 10.494 24.6164 8.77348C21.8221 4.38065 17.8075 1.84256 13.5001 1.84256C9.19262 1.84256 5.17805 4.38065 2.38372 8.77348C1.28551 10.494 1.28551 13.386 2.38372 15.1065C5.17805 19.4994 9.19262 22.0375 13.5001 22.0375Z" stroke="white" stroke-width="2" stroke-linecap="round" stroke-linejoin="round"/>
</g>
</g>
</svg>
