<svg width="24" height="29" viewBox="0 0 24 29" fill="none" xmlns="http://www.w3.org/2000/svg">
<g id="&#240;&#159;&#166;&#134; icon &#34;location&#34;">
<g id="Group">
<path id="Vector" d="M11.9975 17.2598C9.27246 17.2598 7.04639 15.0466 7.04639 12.3087C7.04639 9.57097 9.27246 7.37048 11.9975 7.37048C14.7226 7.37048 16.9486 9.58377 16.9486 12.3215C16.9486 15.0593 14.7226 17.2598 11.9975 17.2598ZM11.9975 9.28951C10.3344 9.28951 8.96542 10.6456 8.96542 12.3215C8.96542 13.9975 10.3216 15.3536 11.9975 15.3536C13.6735 15.3536 15.0296 13.9975 15.0296 12.3215C15.0296 10.6456 13.6607 9.28951 11.9975 9.28951Z" fill="#292D32"/>
<path id="Vector_2" d="M11.9961 28.2496C10.1026 28.2496 8.19636 27.5332 6.71231 26.1131C2.93822 22.4797 -1.23248 16.6843 0.341128 9.78854C1.76121 3.5325 7.22405 0.730713 11.9961 0.730713H12.0088C16.7808 0.730713 22.2437 3.5325 23.6638 9.80133C25.2246 16.697 21.0539 22.4797 17.2798 26.1131C15.7957 27.5332 13.8895 28.2496 11.9961 28.2496ZM11.9961 2.64974C8.27312 2.64974 3.48834 4.63274 2.22178 10.2107C0.840077 16.2365 4.62696 21.4307 8.05563 24.7186C10.2689 26.8551 13.736 26.8551 15.9493 24.7186C19.3651 21.4307 23.152 16.2365 21.7959 10.2107C20.5166 4.63274 15.719 2.64974 11.9961 2.64974Z" fill="#292D32"/>
</g>
</g>
</svg>
