<svg width="24" height="25" viewBox="0 0 24 25" fill="none" xmlns="http://www.w3.org/2000/svg">
<g id="&#240;&#159;&#166;&#134; icon &#34;logout&#34;">
<g id="Group">
<path id="Vector" d="M15.7925 24.8543H15.6403C10.4419 24.8543 7.93634 22.8095 7.50314 18.2292C7.45631 17.7501 7.80755 17.3178 8.29929 17.2711C8.76762 17.2243 9.21253 17.5866 9.25936 18.0656C9.5989 21.7346 11.3317 23.1016 15.652 23.1016H15.8042C20.5694 23.1016 22.2554 21.4191 22.2554 16.6635V9.04516C22.2554 4.28957 20.5694 2.607 15.8042 2.607H15.652C11.3083 2.607 9.57548 3.99746 9.25936 7.7365C9.20082 8.21556 8.79104 8.57778 8.29929 8.53105C7.80755 8.49599 7.45631 8.06367 7.49143 7.5846C7.88951 2.93417 10.4068 0.854324 15.6403 0.854324H15.7925C21.5412 0.854324 23.9999 3.30807 23.9999 9.04516V16.6635C23.9999 22.4006 21.5412 24.8543 15.7925 24.8543Z" fill="#292D32"/>
<path id="Vector_2" d="M15.5098 13.7307H2.18597C1.70594 13.7307 1.30786 13.3334 1.30786 12.8543C1.30786 12.3753 1.70594 11.978 2.18597 11.978H15.5098C15.9898 11.978 16.3879 12.3753 16.3879 12.8543C16.3879 13.3334 15.9898 13.7307 15.5098 13.7307Z" fill="#292D32"/>
<path id="Vector_3" d="M4.79741 17.6451C4.57496 17.6451 4.3525 17.5633 4.17688 17.388L0.254652 13.4737C-0.084884 13.1349 -0.084884 12.574 0.254652 12.2352L4.17688 8.32085C4.51642 7.982 5.07841 7.982 5.41794 8.32085C5.75748 8.6597 5.75748 9.22056 5.41794 9.55941L2.11625 12.8545L5.41794 16.1495C5.75748 16.4883 5.75748 17.0492 5.41794 17.388C5.25403 17.5633 5.01987 17.6451 4.79741 17.6451Z" fill="#292D32"/>
</g>
</g>
</svg>
