<svg width="27" height="24" viewBox="0 0 27 24" fill="none" xmlns="http://www.w3.org/2000/svg">
<g id="&#240;&#159;&#166;&#134; icon &#34;map 1&#34;">
<g id="Group">
<path id="Vector" d="M1.56006 6.82112V18.6097C1.56006 20.9117 3.19567 21.8567 5.18264 20.7178L8.02982 19.0943C8.64772 18.743 9.67755 18.7066 10.3197 19.0337L16.6804 22.2202C17.3226 22.5352 18.3524 22.5109 18.9703 22.1596L24.2164 19.1549C24.8827 18.7672 25.4401 17.8222 25.4401 17.0468V5.2582C25.4401 2.95622 23.8044 2.0112 21.8175 3.15007L18.9703 4.77357C18.3524 5.12493 17.3226 5.16127 16.6804 4.83415L10.3197 1.65985C9.67755 1.34484 8.64772 1.36907 8.02982 1.72043L2.78374 4.72511C2.10526 5.11281 1.56006 6.05783 1.56006 6.82112Z" stroke="#292D32" stroke-width="1.81735" stroke-linecap="round" stroke-linejoin="round"/>
<path id="Vector_2" d="M9.15649 2.24142V17.9918" stroke="#292D32" stroke-width="1.81735" stroke-linecap="round" stroke-linejoin="round"/>
<path id="Vector_3" d="M17.8435 5.41586V21.6266" stroke="#292D32" stroke-width="1.81735" stroke-linecap="round" stroke-linejoin="round"/>
</g>
</g>
</svg>
