<svg width="24" height="30" viewBox="0 0 24 30" fill="none" xmlns="http://www.w3.org/2000/svg">
<g id="&#240;&#159;&#166;&#134; icon &#34;notification&#34;">
<g id="Group">
<path id="Vector" d="M12.0354 26.7334C8.84628 26.7334 5.65723 26.227 2.63242 25.2142C1.48271 24.8173 0.606751 24.0097 0.223517 22.9558C-0.173404 21.9019 -0.0365351 20.7385 0.593064 19.6983L2.16706 17.0841C2.49555 16.5367 2.79666 15.4417 2.79666 14.7984V10.8429C2.79666 5.75139 6.9438 1.60425 12.0354 1.60425C17.1269 1.60425 21.274 5.75139 21.274 10.8429V14.7984C21.274 15.428 21.5752 16.5367 21.9037 17.0978L23.464 19.6983C24.0525 20.6838 24.162 21.8746 23.7651 22.9558C23.3682 24.0371 22.5059 24.8583 21.4246 25.2142C18.4135 26.227 15.2244 26.7334 12.0354 26.7334ZM12.0354 3.65729C8.07981 3.65729 4.8497 6.87372 4.8497 10.8429V14.7984C4.8497 15.7976 4.43909 17.2758 3.93267 18.138L2.35868 20.7522C2.05756 21.2587 1.97544 21.7924 2.15337 22.2441C2.31762 22.7095 2.72822 23.0653 3.28939 23.2569C9.01052 25.1731 15.0739 25.1731 20.795 23.2569C21.2877 23.0927 21.671 22.7232 21.8489 22.2304C22.0268 21.7377 21.9858 21.2039 21.712 20.7522L20.138 18.138C19.6179 17.2484 19.221 15.7839 19.221 14.7847V10.8429C19.221 6.87372 16.0046 3.65729 12.0354 3.65729Z" fill="#292D32"/>
<path id="Vector_2" d="M14.5806 4.0272C14.4848 4.0272 14.389 4.01351 14.2932 3.98613C13.8963 3.87664 13.5131 3.79452 13.1435 3.73977C11.9801 3.58921 10.8578 3.67133 9.8039 3.98613C9.42067 4.10932 9.0101 3.98613 8.75005 3.69871C8.49 3.41128 8.40788 3.00068 8.55843 2.63113C9.1196 1.194 10.4882 0.249603 12.0486 0.249603C13.6089 0.249603 14.9776 1.18031 15.5387 2.63113C15.6756 3.00068 15.6072 3.41128 15.3471 3.69871C15.1418 3.9177 14.8544 4.0272 14.5806 4.0272Z" fill="#292D32"/>
<path id="Vector_3" d="M12.0344 29.8543C10.6794 29.8543 9.36546 29.3068 8.40742 28.3488C7.44933 27.3907 6.90186 26.0767 6.90186 24.7217H8.95489C8.95489 25.5293 9.28334 26.3231 9.85819 26.8979C10.433 27.4728 11.2269 27.8013 12.0344 27.8013C13.7316 27.8013 15.114 26.4189 15.114 24.7217H17.167C17.167 27.5549 14.8676 29.8543 12.0344 29.8543Z" fill="#292D32"/>
</g>
</g>
</svg>
