<svg width="25" height="24" viewBox="0 0 25 24" fill="none" xmlns="http://www.w3.org/2000/svg">
<g id="&#240;&#159;&#166;&#134; icon &#34;profile circle&#34;">
<g id="Group">
<path id="Vector" d="M24.38 11.94C24.38 5.36106 19.0189 0 12.44 0C5.86106 0 0.5 5.36106 0.5 11.94C0.5 15.4026 1.9925 18.5189 4.35662 20.704C4.35662 20.7159 4.35662 20.7159 4.34468 20.7278C4.46408 20.8472 4.60736 20.9428 4.72676 21.0502C4.7984 21.1099 4.8581 21.1696 4.92974 21.2174C5.14466 21.3965 5.38346 21.5636 5.61032 21.7308C5.6939 21.7905 5.76554 21.8383 5.84912 21.898C6.07598 22.0532 6.31478 22.1965 6.56552 22.3278C6.6491 22.3756 6.74462 22.4353 6.8282 22.483C7.067 22.6144 7.31774 22.7338 7.58042 22.8412C7.67594 22.889 7.77146 22.9367 7.86698 22.9726C8.12966 23.08 8.39234 23.1755 8.65502 23.2591C8.75054 23.2949 8.84606 23.3308 8.94158 23.3546C9.22814 23.4382 9.5147 23.5099 9.80126 23.5815C9.88484 23.6054 9.96842 23.6293 10.0639 23.6412C10.3983 23.7128 10.7326 23.7606 11.0788 23.7964C11.1266 23.7964 11.1744 23.8084 11.2221 23.8203C11.6281 23.8561 12.034 23.88 12.44 23.88C12.846 23.88 13.2519 23.8561 13.6459 23.8203C13.6937 23.8203 13.7415 23.8084 13.7892 23.7964C14.1355 23.7606 14.4698 23.7128 14.8041 23.6412C14.8877 23.6293 14.9713 23.5934 15.0668 23.5815C15.3534 23.5099 15.6519 23.4502 15.9265 23.3546C16.022 23.3188 16.1175 23.283 16.213 23.2591C16.4757 23.1636 16.7503 23.08 17.0011 22.9726C17.0966 22.9367 17.1921 22.889 17.2876 22.8412C17.5384 22.7338 17.7891 22.6144 18.0399 22.483C18.1354 22.4353 18.219 22.3756 18.3025 22.3278C18.5413 22.1845 18.7801 22.0532 19.0189 21.898C19.1025 21.8502 19.1742 21.7905 19.2577 21.7308C19.4965 21.5636 19.7234 21.3965 19.9383 21.2174C20.01 21.1577 20.0697 21.098 20.1413 21.0502C20.2726 20.9428 20.404 20.8353 20.5234 20.7278C20.5234 20.7159 20.5234 20.7159 20.5114 20.704C22.8875 18.5189 24.38 15.4026 24.38 11.94ZM18.3384 17.8742C15.1026 15.7011 9.80126 15.7011 6.54164 17.8742C6.01628 18.2204 5.58644 18.6264 5.22824 19.0682C3.41336 17.2294 2.291 14.7101 2.291 11.94C2.291 6.34014 6.84014 1.791 12.44 1.791C18.0399 1.791 22.589 6.34014 22.589 11.94C22.589 14.7101 21.4666 17.2294 19.6518 19.0682C19.3055 18.6264 18.8637 18.2204 18.3384 17.8742Z" fill="#292D32"/>
<path id="Vector_2" d="M12.4399 5.88605C9.96832 5.88605 7.9624 7.89197 7.9624 10.3636C7.9624 12.7874 9.86086 14.7575 12.3802 14.8291H12.4877H12.5712H12.5951C15.007 14.7455 16.9055 12.7874 16.9174 10.3636C16.9174 7.89197 14.9115 5.88605 12.4399 5.88605Z" fill="#292D32"/>
</g>
</g>
</svg>
