<svg width="24" height="23" viewBox="0 0 24 23" fill="none" xmlns="http://www.w3.org/2000/svg">
<g id="&#240;&#159;&#166;&#134; icon &#34;setting 2&#34;">
<g id="Group">
<path id="Vector" d="M11.9888 15.5442C9.68025 15.5442 7.80664 13.6706 7.80664 11.3621C7.80664 9.05354 9.68025 7.17993 11.9888 7.17993C14.2973 7.17993 16.171 9.05354 16.171 11.3621C16.171 13.6706 14.2973 15.5442 11.9888 15.5442ZM11.9888 8.85279C10.6059 8.85279 9.4795 9.97919 9.4795 11.3621C9.4795 12.745 10.6059 13.8714 11.9888 13.8714C13.3717 13.8714 14.4981 12.745 14.4981 11.3621C14.4981 9.97919 13.3717 8.85279 11.9888 8.85279Z" fill="#292D32"/>
<path id="Vector_2" d="M15.5688 22.7262C15.3346 22.7262 15.1004 22.6927 14.8662 22.6369C14.1747 22.4473 13.5948 22.0124 13.2268 21.399L13.0929 21.176C12.4349 20.0384 11.5316 20.0384 10.8736 21.176L10.7509 21.3879C10.3829 22.0124 9.80297 22.4585 9.11152 22.6369C8.40892 22.8265 7.68402 22.7262 7.07063 22.3581L5.15242 21.254C4.47212 20.8637 3.98141 20.228 3.76952 19.4585C3.56877 18.689 3.66914 17.8972 4.05948 17.2169C4.3829 16.6481 4.47212 16.1351 4.28253 15.8117C4.09294 15.4882 3.61338 15.2986 2.95539 15.2986C1.32714 15.2986 0 13.9715 0 12.3433V10.3804C0 8.75218 1.32714 7.42504 2.95539 7.42504C3.61338 7.42504 4.09294 7.23545 4.28253 6.91203C4.47212 6.58861 4.39405 6.0756 4.05948 5.50683C3.66914 4.82653 3.56877 4.02355 3.76952 3.26519C3.97026 2.49567 4.46097 1.85998 5.15242 1.46965L7.08178 0.365561C8.34201 -0.381651 10.0037 0.0532933 10.7621 1.33582L10.8959 1.55887C11.5539 2.69642 12.4572 2.69642 13.1152 1.55887L13.2379 1.34697C13.9963 0.0532933 15.658 -0.381651 16.9294 0.376714L18.8476 1.4808C19.5279 1.87114 20.0186 2.50683 20.2305 3.27634C20.4312 4.04586 20.3309 4.83768 19.9405 5.51798C19.6171 6.08675 19.5279 6.59976 19.7175 6.92318C19.9071 7.2466 20.3866 7.43619 21.0446 7.43619C22.6729 7.43619 24 8.76333 24 10.3916V12.3544C24 13.9827 22.6729 15.3098 21.0446 15.3098C20.3866 15.3098 19.9071 15.4994 19.7175 15.8228C19.5279 16.1462 19.6059 16.6592 19.9405 17.228C20.3309 17.9083 20.4424 18.7113 20.2305 19.4697C20.0297 20.2392 19.539 20.8749 18.8476 21.2652L16.9182 22.3693C16.4944 22.6035 16.0372 22.7262 15.5688 22.7262ZM11.9888 18.5998C12.9814 18.5998 13.9071 19.2243 14.5428 20.3284L14.6654 20.5403C14.7993 20.7745 15.0223 20.9418 15.29 21.0087C15.5576 21.0756 15.8253 21.0421 16.0483 20.9083L17.9777 19.7931C18.2677 19.6258 18.4907 19.347 18.5799 19.0124C18.6691 18.6778 18.6245 18.3321 18.4572 18.0421C17.8216 16.9492 17.7435 15.8228 18.2342 14.9641C18.7249 14.1053 19.7398 13.6146 21.0112 13.6146C21.7249 13.6146 22.2937 13.0459 22.2937 12.3321V10.3693C22.2937 9.66668 21.7249 9.08675 21.0112 9.08675C19.7398 9.08675 18.7249 8.59604 18.2342 7.73731C17.7435 6.87857 17.8216 5.75218 18.4572 4.65924C18.6245 4.36928 18.6691 4.02355 18.5799 3.68898C18.4907 3.35441 18.2788 3.08675 17.9888 2.90831L16.0595 1.80422C15.5799 1.51426 14.9442 1.68155 14.6543 2.17225L14.5316 2.38415C13.8959 3.48824 12.9703 4.11277 11.9777 4.11277C10.9851 4.11277 10.0595 3.48824 9.42379 2.38415L9.30112 2.1611C9.02231 1.6927 8.39777 1.52541 7.91822 1.80422L5.98885 2.91946C5.69888 3.08675 5.47584 3.36556 5.38662 3.70013C5.2974 4.03471 5.34201 4.38043 5.50929 4.67039C6.14498 5.76333 6.22305 6.88972 5.73234 7.74846C5.24164 8.6072 4.22677 9.0979 2.95539 9.0979C2.24164 9.0979 1.67286 9.66668 1.67286 10.3804V12.3433C1.67286 13.0459 2.24164 13.6258 2.95539 13.6258C4.22677 13.6258 5.24164 14.1165 5.73234 14.9752C6.22305 15.834 6.14498 16.9604 5.50929 18.0533C5.34201 18.3433 5.2974 18.689 5.38662 19.0236C5.47584 19.3581 5.68773 19.6258 5.9777 19.8042L7.90706 20.9083C8.14126 21.0533 8.42007 21.0868 8.67658 21.0198C8.94424 20.9529 9.16729 20.7745 9.31227 20.5403L9.43494 20.3284C10.0706 19.2355 10.9963 18.5998 11.9888 18.5998Z" fill="#292D32"/>
</g>
</g>
</svg>
