<svg width="40" height="40" viewBox="0 0 40 40" fill="none" xmlns="http://www.w3.org/2000/svg">
<g id="share">
<circle id="Ellipse 10" cx="20" cy="20" r="20" fill="#E4E3E3" fill-opacity="0.2"/>
<g id="Group">
<g id="Vector">
<path d="M25.8918 12.086C28.2918 13.754 29.9478 16.406 30.2838 19.466L25.8918 12.086Z" fill="#E4E3E3" fill-opacity="0.2"/>
<path d="M25.8918 12.086C28.2918 13.754 29.9478 16.406 30.2838 19.466" stroke="white" stroke-width="1.8" stroke-linecap="round" stroke-linejoin="round"/>
</g>
<g id="Vector_2">
<path d="M9.72803 19.526C10.04 16.4779 11.672 13.8259 14.048 12.1459L9.72803 19.526Z" fill="#E4E3E3" fill-opacity="0.2"/>
<path d="M9.72803 19.526C10.04 16.4779 11.672 13.8259 14.048 12.1459" stroke="white" stroke-width="1.8" stroke-linecap="round" stroke-linejoin="round"/>
</g>
<g id="Vector_3">
<path d="M15.3679 29.8099C16.7599 30.5179 18.3439 30.9139 20.0119 30.9139C21.6199 30.9139 23.1319 30.5539 24.4879 29.8939" fill="#E4E3E3" fill-opacity="0.2"/>
<path d="M15.3679 29.8099C16.7599 30.5179 18.3439 30.9139 20.0119 30.9139C21.6199 30.9139 23.1319 30.5539 24.4879 29.8939" stroke="white" stroke-width="1.8" stroke-linecap="round" stroke-linejoin="round"/>
</g>
<path id="Vector_4" d="M20.012 13.922C21.8545 13.922 23.348 12.4284 23.348 10.586C23.348 8.74358 21.8545 7.25 20.012 7.25C18.1696 7.25 16.676 8.74358 16.676 10.586C16.676 12.4284 18.1696 13.922 20.012 13.922Z" fill="#E4E3E3" fill-opacity="0.2" stroke="white" stroke-width="1.8" stroke-linecap="round" stroke-linejoin="round"/>
<path id="Vector_5" d="M11.336 28.586C13.1784 28.586 14.672 27.0924 14.672 25.25C14.672 23.4075 13.1784 21.914 11.336 21.914C9.49358 21.914 8 23.4075 8 25.25C8 27.0924 9.49358 28.586 11.336 28.586Z" fill="#E4E3E3" fill-opacity="0.2" stroke="white" stroke-width="1.8" stroke-linecap="round" stroke-linejoin="round"/>
<path id="Vector_6" d="M28.544 28.586C30.3865 28.586 31.88 27.0924 31.88 25.25C31.88 23.4075 30.3865 21.914 28.544 21.914C26.7016 21.914 25.208 23.4075 25.208 25.25C25.208 27.0924 26.7016 28.586 28.544 28.586Z" fill="#E4E3E3" fill-opacity="0.2" stroke="white" stroke-width="1.8" stroke-linecap="round" stroke-linejoin="round"/>
</g>
</g>
</svg>
